<svg width="599" height="440" viewBox="0 0 599 440" fill="none" xmlns="http://www.w3.org/2000/svg">
<g filter="url(#filter0_d)">
<path d="M242.149 54.6615L237.157 49.6215V41.5095H241.525V48.1335L244.165 50.7735H251.317L253.957 48.1335V19.2855H258.325V49.6215L253.285 54.6615H242.149ZM270.86 54.6615L265.82 49.6215V34.5975L270.86 29.5575H282.764L287.804 34.5975V49.6215L282.764 54.6615H270.86ZM272.684 51.3015H280.94L283.58 48.6615L283.532 35.5575L280.94 32.9175H272.684L270.044 35.5575V48.6615L272.684 51.3015ZM299.836 54.6615L294.844 49.6215V29.5575H299.068L299.02 48.6135L301.612 51.3015H307.852L312.796 46.3575V29.5575H317.02V54.6615H312.796V50.7735L308.956 54.6615H299.836ZM329.313 54.6615L324.273 49.6215V34.5975L329.313 29.5575H340.497L345.537 34.5975V43.6695H328.497V48.5175L331.137 51.1575H345.105V54.6615H329.313ZM328.497 40.3095H341.313V35.5575L338.673 32.9175H331.137L328.497 35.5575V40.3095ZM352.834 54.6615V29.5575H357.058V34.0695L361.426 29.5575H367.858V33.7815H361.618L357.058 38.4855V54.6615H352.834Z" fill="white"/>
<path d="M198.234 39.7576L139.1 57.1255L139.1 22.3897L198.234 39.7576Z" fill="#53B051"/>
</g>
<path d="M231.945 147.277V143.245H249.369L251.961 140.605V133.549L249.369 130.909H235.689L230.697 125.917V116.941L235.689 111.901H254.505V115.933H237.657L235.017 118.573L235.065 124.429L237.657 127.069H251.337L256.329 132.109V142.237L251.337 147.277H231.945ZM267.715 147.277L262.675 142.237V127.213L267.715 122.173H279.187L283.603 126.541V130.525H279.379V127.933L276.979 125.533H269.539L266.899 128.173V141.085L269.539 143.773H283.363V147.277H267.715ZM294.527 147.277L289.487 142.237V127.213L294.527 122.173H306.431L311.471 127.213V142.237L306.431 147.277H294.527ZM296.351 143.917H304.607L307.247 141.277L307.199 128.173L304.607 125.533H296.351L293.711 128.173V141.277L296.351 143.917ZM318.751 147.277V122.173H322.975V126.685L327.343 122.173H333.775V126.397H327.535L322.975 131.101V147.277H318.751ZM342.199 147.277L337.159 142.237V127.213L342.199 122.173H353.383L358.423 127.213V136.285H341.383V141.133L344.023 143.773H357.991V147.277H342.199ZM341.383 132.925H354.199V128.173L351.559 125.533H344.023L341.383 128.173V132.925ZM365.72 147.277V143.773H379.016L381.272 141.469V138.445L378.872 136.045H368.936L364.52 131.725V126.637L368.936 122.173H383.096V125.725H370.952L368.744 127.885V130.333L371.048 132.637H381.08L385.496 136.957V142.861L381.128 147.277H365.72Z" fill="white"/>
<path d="M198.234 135.809L139.1 153.482L139.1 118.137L198.234 135.809Z" fill="#53B051"/>
<path d="M234.382 328.65L229.342 323.61V298.314L234.382 293.274H250.366L255.262 298.17L252.478 301.002L248.638 297.162H236.35L233.71 299.802V322.122L236.35 324.762H249.022L252.91 320.874L255.694 323.706L250.702 328.65H234.382ZM261.092 328.65V303.546H265.316V308.058L269.684 303.546H276.116V307.77H269.876L265.316 312.474V328.65H261.092ZM288.381 300.81L292.989 293.658H297.885L291.933 300.81H288.381ZM284.541 328.65L279.501 323.61V308.586L284.541 303.546H295.725L300.765 308.586V317.658H283.725V322.506L286.365 325.146H300.333V328.65H284.541ZM283.725 314.298H296.541V309.546L293.901 306.906H286.365L283.725 309.546V314.298ZM312.525 328.65L307.485 323.61V308.586L312.525 303.546H321.741L325.629 307.53V293.274H329.853V328.65H325.629V324.714L321.741 328.65H312.525ZM320.685 325.29L325.629 320.298V311.946L320.685 306.906H314.349L311.709 309.546V322.65L314.349 325.29H320.685ZM337.686 300.81V295.146H341.91V300.81H337.686ZM337.686 328.65V303.546H341.91V328.65H337.686ZM354.437 328.65L350.021 324.282V306.906H347.381V303.546H350.117L351.173 297.114H354.245V303.546H359.573V306.906H354.245V322.794L356.501 325.146H360.677V328.65H354.437ZM365.811 328.65V325.146H379.107L381.363 322.842V319.818L378.963 317.418H369.027L364.611 313.098V308.01L369.027 303.546H383.187V307.098H371.043L368.835 309.258V311.706L371.139 314.01H381.171L385.587 318.33V324.234L381.219 328.65H365.811Z" fill="white"/>
<path d="M198.234 318.17L139.1 335.538L139.1 300.802L198.234 318.17Z" fill="#53B051"/>
<path d="M241.284 431.107V426.211H234.852L229.812 421.171V395.875L234.852 390.835H251.556L256.596 395.875V421.171L251.556 426.211H245.124V431.107H241.284ZM236.82 422.323H241.284V417.235H245.124V422.323H249.588L252.228 419.683V397.363L249.588 394.723H236.82L234.18 397.363V419.683L236.82 422.323ZM268.564 426.211L263.572 421.171V401.107H267.796L267.748 420.163L270.34 422.851H276.58L281.524 417.907V401.107H285.748V426.211H281.524V422.323L277.684 426.211H268.564ZM293.578 398.371V392.707H297.802V398.371H293.578ZM293.578 426.211V401.107H297.802V426.211H293.578ZM310.329 426.211L305.913 421.843V404.467H303.273V401.107H306.009L307.065 394.675H310.137V401.107H315.465V404.467H310.137V420.355L312.393 422.707H316.569V426.211H310.329ZM326.407 426.211L321.991 421.843V404.467H319.351V401.107H322.087L323.143 394.675H326.215V401.107H331.543V404.467H326.215V420.355L328.471 422.707H332.647V426.211H326.407ZM342.245 426.211L337.205 421.171V406.147L342.245 401.107H353.429L358.469 406.147V415.219H341.429V420.067L344.069 422.707H358.037V426.211H342.245ZM341.429 411.859H354.245V407.107L351.605 404.467H344.069L341.429 407.107V411.859ZM365.765 426.211V401.107H369.989V405.619L374.357 401.107H380.789V405.331H374.549L369.989 410.035V426.211H365.765Z" fill="white"/>
<path d="M198.234 411.298L139.1 428.666L139.1 393.93L198.234 411.298Z" fill="#53B051"/>
<path d="M234.852 236.891L229.812 231.851V206.555L234.852 201.515H251.556L256.596 206.555V231.851L251.556 236.891H234.852ZM236.82 233.003H249.588L252.228 230.363V208.043L249.588 205.403H236.82L234.18 208.043V230.363L236.82 233.003ZM263.812 245.867V211.787H268.036V215.771L271.876 211.787H281.14L286.132 216.827V231.851L281.14 236.891H271.876L268.036 232.955V245.867H263.812ZM272.98 233.531H279.316L281.908 230.891V217.787L279.316 215.147H272.98L268.036 220.187V228.539L272.98 233.531ZM298.141 236.891L293.725 232.523V215.147H291.085V211.787H293.821L294.877 205.355H297.949V211.787H303.277V215.147H297.949V231.035L300.205 233.387H304.381V236.891H298.141ZM309.515 209.051V203.387H313.739V209.051H309.515ZM309.515 236.891V211.787H313.739V236.891H309.515ZM326.026 236.891L320.986 231.851V216.827L326.026 211.787H337.93L342.97 216.827V231.851L337.93 236.891H326.026ZM327.85 233.531H336.106L338.746 230.891L338.698 217.787L336.106 215.147H327.85L325.21 217.787V230.891L327.85 233.531ZM350.25 236.891V211.787H354.474V216.299L358.842 211.787H368.106L373.098 216.827V236.891H368.874V217.883L366.33 215.147H359.946L354.474 220.715V236.891H350.25ZM380.718 236.891V233.387H394.014L396.27 231.083V228.059L393.87 225.659H383.934L379.518 221.339V216.251L383.934 211.787H398.094V215.339H385.95L383.742 217.499V219.947L386.046 222.251H396.078L400.494 226.571V232.475L396.126 236.891H380.718Z" fill="white"/>
<path d="M198.234 222.009L139.1 239.377L139.1 204.641L198.234 222.009Z" fill="#53B051"/>
<defs>
<filter id="filter0_d" x="135.1" y="19.2855" width="236.757" height="45.84" filterUnits="userSpaceOnUse" color-interpolation-filters="sRGB">
<feFlood flood-opacity="0" result="BackgroundImageFix"/>
<feColorMatrix in="SourceAlpha" type="matrix" values="0 0 0 0 0 0 0 0 0 0 0 0 0 0 0 0 0 0 127 0"/>
<feOffset dy="4"/>
<feGaussianBlur stdDeviation="2"/>
<feColorMatrix type="matrix" values="0 0 0 0 0 0 0 0 0 0 0 0 0 0 0 0 0 0 0.25 0"/>
<feBlend mode="normal" in2="BackgroundImageFix" result="effect1_dropShadow"/>
<feBlend mode="normal" in="SourceGraphic" in2="effect1_dropShadow" result="shape"/>
</filter>
</defs>
</svg>
